<?xml version="1.0" standalone="no"?>
<!DOCTYPE svg PUBLIC "-//W3C//DTD SVG 20010904//EN"
 "http://www.w3.org/TR/2001/REC-SVG-20010904/DTD/svg10.dtd">
<svg version="1.0" xmlns="http://www.w3.org/2000/svg"
 width="1080.000000pt" height="1080.000000pt" viewBox="0 0 1080.000000 1080.000000"
 preserveAspectRatio="xMidYMid meet">
<metadata>
Created by potrace 1.14, written by Peter Selinger 2001-2017
</metadata>
<g transform="translate(0.000000,1080.000000) scale(0.100000,-0.100000)"
fill="#000000" stroke="none">
<path d="M7020 10791 c-8 -5 -94 -48 -190 -96 -96 -48 -188 -96 -205 -106 -16
-10 -43 -25 -60 -33 -16 -9 -70 -40 -118 -71 -48 -30 -92 -55 -97 -55 -5 0
-15 -6 -22 -13 -7 -6 -38 -25 -68 -41 -30 -16 -78 -46 -107 -67 -29 -22 -56
-39 -61 -39 -5 0 -28 -13 -50 -30 -23 -16 -45 -30 -49 -30 -5 -1 -24 -14 -43
-30 -19 -17 -40 -30 -47 -30 -6 0 -18 -8 -25 -19 -7 -10 -22 -21 -33 -25 -11
-3 -36 -19 -55 -36 -19 -16 -38 -30 -42 -30 -11 0 -43 -63 -40 -77 2 -7 -14
-21 -35 -33 -45 -24 -63 -35 -116 -72 -22 -16 -44 -28 -49 -28 -7 0 -80 -44
-149 -91 -14 -9 -49 -30 -78 -45 -28 -16 -61 -34 -72 -40 -11 -6 -32 -23 -47
-36 -36 -34 -149 -98 -171 -98 -10 0 -51 15 -92 34 -41 19 -112 46 -159 61
-47 15 -101 33 -120 40 -32 11 -60 19 -175 47 -61 15 -154 21 -168 10 -22 -17
-68 -23 -83 -11 -56 46 -380 200 -596 283 -38 14 -96 37 -130 50 -35 13 -103
36 -153 51 -49 15 -113 35 -140 46 -28 10 -56 19 -63 19 -6 0 -51 12 -99 26
-131 38 -312 76 -325 68 -4 -3 -16 -1 -25 5 -26 13 -241 37 -429 47 -99 5
-227 -11 -284 -34 -41 -17 -95 -73 -137 -142 -45 -75 -103 -195 -103 -213 0
-7 -4 -17 -9 -23 -13 -14 -81 -229 -81 -258 0 -14 -4 -28 -10 -31 -5 -3 -10
-21 -10 -39 0 -17 -4 -36 -9 -42 -10 -10 -30 -92 -57 -231 -15 -77 -21 -93
-41 -102 -13 -6 -23 -15 -23 -20 0 -5 -9 -11 -20 -14 -12 -3 -20 -14 -20 -26
0 -11 -4 -30 -9 -43 -8 -20 -21 -72 -37 -148 -6 -32 -11 -66 -23 -165 -28
-225 -31 -264 -26 -316 4 -33 2 -60 -3 -63 -13 -8 -8 -352 7 -501 14 -134 28
-192 47 -199 10 -4 12 16 8 97 -5 119 -11 184 -20 199 -10 15 -11 389 -2 394
5 3 8 36 7 72 -1 75 6 189 15 242 3 19 8 62 11 95 2 33 16 112 31 175 14 63
29 127 31 143 3 15 12 27 20 27 12 0 14 -7 9 -27 -8 -32 -10 -61 -8 -122 2
-36 5 -42 18 -37 25 10 164 -99 164 -129 0 -35 21 -86 34 -82 6 2 12 20 14 39
l3 36 53 -18 c28 -10 75 -22 103 -26 28 -3 55 -9 61 -13 18 -11 16 -172 -4
-406 -5 -58 -6 -61 -32 -60 -40 0 -42 -33 -3 -46 l30 -11 -3 -166 -4 -167 -29
3 c-30 3 -60 -19 -49 -36 3 -6 22 -13 41 -16 37 -7 37 -7 40 -86 1 -19 3 -53
4 -75 6 -83 7 -81 -56 -78 -32 2 -76 7 -98 11 -35 6 -40 11 -43 37 -2 17 -8
36 -14 43 -15 17 -38 -3 -38 -35 0 -22 -3 -23 -35 -17 -19 3 -61 17 -92 30
-43 17 -59 29 -64 48 -11 41 -19 49 -35 35 -8 -6 -14 -20 -14 -30 0 -11 -4
-19 -10 -19 -18 0 -11 -29 10 -40 12 -7 20 -21 20 -37 0 -15 12 -65 26 -112
14 -47 36 -124 50 -171 45 -152 128 -343 185 -426 16 -24 29 -48 29 -54 0 -6
20 -31 45 -56 25 -24 45 -50 45 -57 0 -12 95 -108 159 -160 36 -30 36 -23 11
-142 -19 -88 -33 -208 -32 -272 2 -76 47 -175 129 -284 110 -145 281 -289 343
-289 11 0 24 -8 27 -17 4 -10 13 -24 20 -31 11 -12 13 -5 12 40 -4 102 103
450 132 432 5 -3 9 -11 9 -19 0 -7 11 -33 25 -56 26 -45 91 -244 119 -359 26
-113 74 -511 91 -772 5 -62 23 -192 35 -243 5 -22 16 -71 25 -110 9 -38 25
-94 36 -123 47 -130 95 -341 80 -353 -6 -5 -9 -6 -6 -3 7 11 -42 44 -65 44
-21 0 -102 17 -130 27 -8 3 -21 7 -28 9 -85 17 -112 29 -112 48 0 12 -2 95 -5
186 -7 199 -7 181 -5 360 2 322 -10 779 -22 804 -11 26 -32 34 -42 18 -3 -5
-33 -3 -67 4 -84 17 -184 14 -184 -6 0 -11 13 -16 48 -18 46 -3 62 -17 31 -29
-11 -4 -14 -13 -9 -31 3 -13 5 -117 4 -231 -1 -113 -2 -383 -2 -598 0 -216 -2
-393 -4 -393 -5 0 -65 69 -83 95 -16 25 -161 186 -199 222 -14 13 -35 26 -48
29 -13 4 -23 10 -23 15 0 5 -9 9 -20 9 -11 0 -20 -5 -20 -12 0 -6 3 -9 6 -5
12 11 33 -20 28 -41 -4 -11 5 -36 19 -60 14 -22 33 -56 41 -76 8 -20 30 -60
49 -89 19 -28 55 -92 82 -142 57 -108 60 -112 79 -96 17 14 40 5 30 -11 -5 -8
-1 -9 11 -5 12 5 25 -1 42 -17 22 -23 24 -30 23 -138 -1 -62 1 -171 5 -243 4
-71 6 -150 6 -175 -1 -41 7 -214 26 -590 11 -205 10 -263 -4 -267 -22 -8 -88
-64 -100 -86 -13 -23 -8 -55 13 -96 19 -35 18 -39 -16 -78 -22 -25 -30 -44
-30 -72 0 -44 21 -101 44 -121 20 -16 20 -25 -1 -45 -30 -31 -73 -100 -73
-119 0 -11 19 -44 41 -74 l42 -55 -22 -44 c-26 -54 -27 -93 -1 -142 16 -33 41
-50 73 -51 14 0 7 31 -8 37 -21 8 -45 56 -45 91 0 28 33 82 49 82 5 0 11 -33
14 -72 13 -155 50 -314 92 -398 16 -32 28 -101 27 -157 -1 -24 3 -55 9 -69 10
-27 31 -271 49 -561 5 -89 16 -223 25 -297 9 -74 15 -138 14 -143 -4 -23 2
-90 10 -101 4 -7 33 -16 64 -19 l57 -6 0 54 c0 30 -5 92 -10 139 -5 47 -14
143 -19 213 -5 71 -14 134 -19 140 -4 7 -10 48 -11 92 -1 44 -7 125 -13 180
-6 55 -11 134 -12 175 l-1 75 30 0 c35 0 28 30 65 -320 24 -235 24 -233 45
-395 8 -69 19 -174 23 -235 l7 -110 602 -3 c516 -2 603 0 616 12 8 8 17 37 21
63 4 26 12 78 18 115 l11 68 50 -2 c44 -2 51 -6 75 -40 15 -21 32 -38 37 -38
6 1 27 13 48 29 35 27 43 29 105 25 37 -2 157 -6 267 -9 110 -3 233 -8 272
-11 67 -5 74 -8 90 -35 10 -16 20 -29 23 -29 3 0 14 14 23 30 17 28 22 30 83
30 36 0 64 -4 64 -10 0 -12 37 -13 44 -2 7 12 197 21 541 27 154 2 325 9 380
15 55 5 186 19 292 30 230 24 227 24 220 6 -3 -7 -2 -31 3 -52 5 -22 10 -78
12 -125 l3 -86 74 -7 c41 -3 109 -6 153 -6 l78 0 0 174 0 174 33 10 c62 19 81
21 94 10 10 -8 13 -6 13 9 0 10 5 24 10 29 8 8 7 19 0 39 -13 33 -6 45 9 17 6
-11 21 -22 34 -26 13 -3 47 -30 75 -59 51 -55 97 -91 258 -205 133 -93 127
-87 127 -130 l0 -39 128 0 c88 0 132 4 139 12 5 7 14 38 19 71 5 32 19 106 30
164 68 359 91 428 242 737 55 112 99 205 99 208 0 3 12 24 27 48 15 23 36 60
46 82 38 79 70 140 80 150 10 10 3 -954 -10 -1297 -6 -178 -6 -178 15 -178
l22 0 2 483 c4 1098 3 1060 30 1120 36 74 87 197 97 232 5 17 19 55 31 85 12
30 29 84 40 120 10 36 27 97 38 135 80 277 103 470 103 850 1 217 -13 353 -41
407 l-20 38 37 15 c39 16 53 10 53 -26 0 -9 11 -33 25 -53 14 -20 25 -39 25
-42 0 -3 15 -38 34 -77 83 -176 115 -266 164 -452 72 -270 87 -389 86 -670 -1
-126 -6 -261 -12 -300 -6 -38 -14 -92 -17 -119 -3 -28 -7 -58 -11 -68 -3 -10
-1 -18 5 -18 6 0 11 9 11 20 0 11 4 20 9 20 4 0 16 21 26 47 10 27 21 53 26
58 4 6 20 62 34 125 20 85 30 164 38 305 22 405 3 711 -61 956 -42 160 -172
441 -256 554 -25 32 -51 71 -58 85 -7 14 -16 27 -19 30 -3 3 -25 31 -48 63
-24 31 -47 57 -52 57 -5 0 -14 11 -21 24 -13 25 -39 55 -185 222 -47 53 -84
104 -84 117 -1 12 -1 193 -1 402 l0 380 -10 -380 c-6 -209 -12 -382 -14 -384
-2 -3 -18 9 -35 25 -47 44 -460 510 -518 584 -28 36 -60 75 -71 88 -11 13 -44
58 -72 100 -29 42 -56 79 -60 80 -5 2 -8 9 -8 16 0 7 -13 33 -30 59 -16 25
-36 68 -43 94 -10 34 -19 48 -32 48 -22 0 -33 27 -51 125 -7 41 -25 125 -38
185 -61 269 -110 805 -83 895 3 8 10 53 17 100 l12 85 192 0 c277 0 318 16
382 151 15 32 27 77 29 112 27 436 67 856 105 1107 11 72 24 177 30 235 5 58
16 162 25 231 32 272 53 899 36 1064 -31 297 -39 349 -85 535 -15 58 -30 121
-35 140 -11 44 -109 277 -125 293 -6 7 -20 29 -30 50 l-19 37 -458 0 c-269 0
-468 -4 -483 -10 -16 -6 -27 -6 -31 0 -7 12 -104 12 -125 1z m104 -39 c14 -17
15 -28 6 -92 -15 -106 -18 -112 -61 -142 -21 -15 -39 -32 -39 -38 0 -17 31
-24 52 -11 25 15 34 -6 19 -51 -5 -18 -10 -44 -9 -58 0 -14 -2 -55 -5 -93 -2
-37 -1 -83 3 -101 14 -63 4 -81 -63 -113 -34 -17 -107 -52 -162 -79 -55 -27
-103 -50 -106 -52 -4 -2 -13 16 -21 40 -11 31 -20 43 -34 43 -20 0 -20 -4 -8
-75 5 -34 4 -36 -43 -57 -26 -12 -59 -28 -73 -37 -55 -33 -184 -87 -196 -82
-8 3 -14 20 -14 39 0 21 -7 41 -19 51 -21 19 -43 14 -36 -7 2 -7 6 -37 9 -68
l6 -56 -53 -22 c-28 -13 -94 -43 -144 -67 -75 -36 -96 -42 -110 -33 -22 14
-142 189 -150 217 -4 16 3 24 26 36 29 15 45 56 21 56 -16 0 -60 -23 -60 -32
0 -19 -29 -6 -54 24 -20 24 -26 43 -26 78 l0 47 100 64 c56 35 109 71 119 79
10 8 38 26 60 40 23 14 57 35 74 46 18 12 70 45 117 74 47 28 92 55 100 60 39
24 184 107 219 125 21 11 46 27 56 35 19 16 52 36 75 45 8 4 33 16 55 27 113
58 235 118 241 118 3 0 20 6 37 14 33 15 58 24 68 25 3 1 13 -7 23 -17z
m-3133 -1425 c-16 -16 -25 -1 -10 16 8 8 16 11 18 5 2 -5 -2 -15 -8 -21z m-74
-99 c-3 -8 -6 -5 -6 6 -1 11 2 17 5 13 3 -3 4 -12 1 -19z m1538 -16 c-3 -3
-11 0 -18 7 -9 10 -8 11 6 5 10 -3 15 -9 12 -12z m55 -2 c-8 -5 -19 -10 -25
-10 -5 0 -3 5 5 10 8 5 20 10 25 10 6 0 3 -5 -5 -10z m375 0 c-3 -5 -23 -10
-43 -9 -33 1 -34 2 -12 9 36 12 62 12 55 0z m-1971 -48 c-3 -11 -12 -23 -20
-26 -11 -4 -11 -1 1 18 9 13 13 32 9 42 -5 16 -4 16 5 3 5 -8 8 -25 5 -37z
m991 8 c-3 -5 -13 -10 -21 -10 -8 0 -12 5 -9 10 3 6 13 10 21 10 8 0 12 -4 9
-10z m-1555 -174 c0 -3 -4 -8 -10 -11 -5 -3 -10 -1 -10 4 0 6 5 11 10 11 6 0
10 -2 10 -4z m230 -36 c0 -11 -2 -20 -4 -20 -2 0 -6 9 -9 20 -3 11 -1 20 4 20
5 0 9 -9 9 -20z m-1097 -365 c-3 -9 -8 -14 -10 -11 -3 3 -2 9 2 15 9 16 15 13
8 -4z m-20 -45 c-3 -11 -7 -20 -9 -20 -2 0 -4 9 -4 20 0 11 4 20 9 20 5 0 7
-9 4 -20z m1454 -62 c-3 -33 -26 -46 -34 -20 -3 6 2 12 11 12 9 0 16 8 16 20
0 11 2 20 6 20 3 0 3 -15 1 -32z m-1457 12 c0 -5 -2 -10 -4 -10 -3 0 -8 5 -11
10 -3 6 -1 10 4 10 6 0 11 -4 11 -10z m0 -56 c0 -14 -4 -23 -9 -20 -5 3 -7 15
-4 26 7 28 13 25 13 -6z m13 -49 c-3 -9 -8 -14 -10 -11 -3 3 -2 9 2 15 9 16
15 13 8 -4z m1414 -37 c-3 -8 -6 -5 -6 6 -1 11 2 17 5 13 3 -3 4 -12 1 -19z
m2363 -59 c0 -5 -4 -9 -8 -9 -5 0 -9 7 -9 15 0 8 4 12 9 9 4 -3 8 -9 8 -15z
m-3828 -31 c-7 -7 -12 -8 -12 -2 0 14 12 26 19 19 2 -3 -1 -11 -7 -17z m1405
-30 c-3 -7 -5 -2 -5 12 0 14 2 19 5 13 2 -7 2 -19 0 -25z m2667 -224 c8 -21
-7 -17 -21 6 -11 16 -10 18 1 14 8 -3 17 -12 20 -20z m-909 -34 c3 -5 1 -10
-4 -10 -6 0 -11 5 -11 10 0 6 2 10 4 10 3 0 8 -4 11 -10z m-805 -80 c-8 -5
-19 -10 -25 -10 -5 0 -3 5 5 10 8 5 20 10 25 10 6 0 3 -5 -5 -10z m803 -20 c3
-11 1 -18 -4 -14 -5 3 -9 12 -9 20 0 20 7 17 13 -6z m37 -10 c0 -5 -4 -10 -10
-10 -5 0 -10 5 -10 10 0 6 5 10 10 10 6 0 10 -4 10 -10z m1050 -71 c0 -6 -4
-7 -10 -4 -5 3 -10 11 -10 16 0 6 5 7 10 4 6 -3 10 -11 10 -16z m8 -41 c4 1 7
-11 7 -28 0 -16 -1 -30 -1 -30 -4 0 -44 81 -44 88 0 4 7 -2 16 -13 8 -11 18
-19 22 -17z m-3856 -30 c-8 -8 -9 -4 -5 13 4 13 8 18 11 10 2 -7 -1 -18 -6
-23z m1135 26 c-3 -3 -12 -4 -19 -1 -8 3 -5 6 6 6 11 1 17 -2 13 -5z m2762
-54 c11 -24 11 -24 -3 -6 -9 11 -16 24 -16 30 0 12 5 7 19 -24z m37 -85 c-3
-8 -11 -15 -17 -15 -9 0 -9 4 0 14 8 10 9 16 1 21 -5 3 -10 1 -10 -6 0 -7 -2
-10 -5 -8 -2 3 -2 15 2 27 l6 23 14 -21 c8 -12 12 -27 9 -35z m-2813 38 c-13
-2 -35 -2 -50 0 -16 2 -5 4 22 4 28 0 40 -2 28 -4z m322 -23 c3 -6 -1 -7 -9
-4 -18 7 -21 14 -7 14 6 0 13 -4 16 -10z m2558 -125 c4 -8 2 -17 -3 -20 -6 -4
-10 3 -10 14 0 25 6 27 13 6z m-4506 -17 c-3 -8 -6 -5 -6 6 -1 11 2 17 5 13 3
-3 4 -12 1 -19z m1490 0 c-3 -8 -6 -5 -6 6 -1 11 2 17 5 13 3 -3 4 -12 1 -19z
m2571 -103 c-3 -3 -9 2 -12 12 -6 14 -5 15 5 6 7 -7 10 -15 7 -18z m-2560 -10
c-3 -3 -9 2 -12 12 -6 14 -5 15 5 6 7 -7 10 -15 7 -18z m1501 -85 c20 -13 106
-59 191 -102 l155 -78 -115 6 c-73 3 -166 0 -255 -10 -140 -15 -154 -17 -232
-30 -46 -8 -51 -2 -29 29 7 11 19 38 26 60 7 22 21 54 31 71 11 17 19 36 19
41 0 6 11 36 25 67 l25 57 61 -43 c34 -24 78 -54 98 -68z m-3022 28 c-3 -8 -6
-5 -6 6 -1 11 2 17 5 13 3 -3 4 -12 1 -19z m411 -53 c-3 -3 -9 2 -12 12 -6 14
-5 15 5 6 7 -7 10 -15 7 -18z m-21 -27 c-3 -7 -5 -2 -5 12 0 14 2 19 5 13 2
-7 2 -19 0 -25z m353 12 c0 -5 -2 -10 -4 -10 -3 0 -8 5 -11 10 -3 6 -1 10 4
10 6 0 11 -4 11 -10z m3879 -24 c-3 -3 -11 5 -18 17 -13 21 -12 21 5 5 10 -10
16 -20 13 -22z m-4252 2 c-3 -8 -6 -5 -6 6 -1 11 2 17 5 13 3 -3 4 -12 1 -19z
m1221 -140 c22 -49 137 -205 164 -222 20 -12 24 -36 7 -36 -6 0 -38 -11 -72
-24 -34 -12 -102 -38 -152 -56 -93 -33 -190 -75 -259 -110 -48 -24 -57 -19
-28 18 25 30 112 164 262 401 25 39 48 71 52 71 4 0 16 -19 26 -42z m1582 -8
c0 -5 -2 -10 -4 -10 -3 0 -8 5 -11 10 -3 6 -1 10 4 10 6 0 11 -4 11 -10z
m-2393 -22 c-3 -8 -6 -5 -6 6 -1 11 2 17 5 13 3 -3 4 -12 1 -19z m-86 -51
c-16 -16 -26 0 -10 19 9 11 15 12 17 4 2 -6 -1 -17 -7 -23z m2754 -7 c56 0
301 -41 406 -68 l104 -27 -2 -100 c-2 -90 -14 -213 -29 -302 -4 -21 -2 -33 5
-33 6 0 11 10 11 22 0 12 6 29 14 37 31 37 41 106 47 323 2 54 7 94 11 90 28
-28 45 -305 28 -447 -14 -120 -68 -337 -136 -548 -30 -94 -66 -208 -79 -252
-13 -44 -34 -114 -47 -155 l-23 -74 -95 -17 c-52 -9 -115 -21 -140 -27 -25 -6
-70 -16 -100 -21 -159 -29 -188 -35 -225 -46 -22 -7 -89 -23 -150 -36 -60 -12
-113 -25 -117 -28 -3 -3 -8 -85 -9 -181 -4 -209 -13 -248 -60 -271 -160 -78
-484 -89 -456 -16 3 8 0 23 -7 33 -7 11 -23 53 -35 94 -12 41 -26 82 -31 91
-5 9 -12 33 -15 53 -4 20 -11 39 -16 42 -5 3 -9 16 -9 29 0 28 -17 42 -32 27
-11 -11 -6 -31 49 -202 13 -41 27 -94 30 -118 3 -23 10 -45 14 -48 5 -3 9 -17
9 -32 0 -15 7 -35 15 -45 7 -11 11 -26 8 -34 -3 -8 1 -28 10 -46 23 -49 157
-525 177 -632 5 -22 17 -74 28 -115 24 -88 59 -236 72 -300 4 -25 20 -85 34
-134 14 -49 30 -112 35 -140 5 -28 23 -107 40 -176 18 -69 36 -145 42 -170 11
-49 50 -210 80 -330 10 -41 18 -87 19 -102 0 -15 8 -31 17 -37 13 -7 15 -12 5
-23 -9 -11 -8 -20 5 -38 9 -12 17 -37 18 -54 2 -17 12 -76 23 -131 24 -117 45
-237 49 -280 1 -16 6 -68 11 -115 5 -47 7 -148 6 -225 -2 -77 -4 -249 -4 -383
l0 -243 -50 -23 c-27 -13 -56 -28 -64 -35 -9 -8 -52 -11 -132 -9 l-119 3 -3
28 -3 27 -236 0 -235 0 6 23 c13 46 26 225 32 435 6 217 -12 540 -36 651 -28
124 -34 148 -52 188 -10 24 -23 43 -28 43 -14 0 -99 -58 -154 -104 -26 -21
-49 -36 -52 -34 -3 3 2 75 10 159 8 85 18 188 21 229 4 41 10 91 15 110 5 19
12 85 16 145 4 61 8 128 10 150 2 22 6 78 9 125 2 47 7 103 10 125 3 22 10
108 15 190 6 83 14 188 18 235 9 104 8 446 -2 484 -12 47 -25 18 -24 -52 1
-114 -20 -422 -30 -435 -5 -7 -12 -21 -14 -32 -4 -16 -6 -14 -12 10 -4 17 -18
59 -31 95 -13 36 -26 76 -29 90 -3 14 -13 34 -21 45 -21 26 -36 4 -24 -34 10
-28 85 -293 101 -353 6 -21 7 -50 3 -65 -5 -16 -7 -32 -6 -38 3 -10 -10 -121
-30 -268 -6 -44 -6 -74 1 -85 9 -16 9 -16 10 0 0 9 4 19 9 22 5 3 -2 -29 -14
-72 -45 -153 -65 -231 -65 -249 0 -10 -22 -110 -49 -223 -27 -113 -63 -261
-80 -330 -58 -244 -71 -280 -116 -330 -36 -40 -127 -179 -165 -250 -18 -36
-40 -77 -49 -91 -15 -27 -9 -65 9 -54 6 4 23 32 39 64 30 59 144 236 168 259
7 7 18 22 23 33 6 10 16 19 23 19 7 0 23 19 36 43 26 45 78 109 151 186 25 26
68 71 95 100 44 47 139 121 156 121 18 0 68 -234 74 -350 3 -52 7 -129 10
-170 8 -129 5 -500 -5 -620 -5 -63 -10 -121 -10 -127 0 -9 -20 -13 -65 -13
l-65 0 0 -150 0 -150 -45 0 -45 0 0 -126 c0 -108 2 -125 15 -120 8 3 24 2 36
-2 19 -7 17 -11 -23 -37 -23 -16 -53 -38 -66 -49 -21 -18 -21 -21 -6 -43 l15
-24 -43 5 c-24 4 -83 11 -132 16 -49 5 -90 11 -92 12 -2 2 1 20 5 39 5 20 4
60 -2 93 -14 79 2 94 44 43 17 -20 39 -37 49 -37 10 0 21 -6 23 -12 4 -8 6 -7
6 4 1 9 -10 25 -24 36 -14 11 -25 27 -25 36 0 9 -4 16 -10 16 -15 0 -12 36 4
49 8 6 24 35 36 63 17 40 21 65 18 115 -7 116 -89 190 -221 200 l-64 5 -17 57
c-10 31 -24 74 -31 96 -7 22 -21 84 -30 138 -18 106 -29 117 -64 68 -26 -36
-26 -44 -1 -36 22 7 23 5 14 -19 -4 -11 -19 -16 -46 -16 -22 0 -48 -5 -60 -11
-11 -6 -54 -12 -97 -14 -42 -2 -116 -10 -166 -19 -148 -26 -337 -44 -390 -36
-66 8 -103 29 -149 82 -62 72 -76 101 -113 236 -22 80 -27 121 -28 237 -2 122
0 148 20 207 35 105 66 159 117 211 59 59 103 78 171 75 28 -1 64 1 80 5 23 6
27 4 27 -14 0 -11 -6 -35 -14 -52 -8 -18 -24 -77 -36 -132 -12 -55 -28 -112
-36 -127 -9 -17 -14 -55 -13 -110 l1 -83 24 70 c13 39 23 77 22 85 0 8 1 22 4
30 3 8 13 42 22 75 40 146 117 367 157 450 56 117 59 127 60 210 0 48 7 83 21
113 19 40 28 46 82 54 20 3 99 142 87 153 -3 3 2 3 10 0 18 -7 29 19 29 71 0
16 16 97 35 180 20 82 46 208 59 279 28 151 32 171 51 245 8 30 21 82 29 115
8 33 21 85 29 115 9 30 21 76 28 103 12 47 12 48 104 92 51 25 95 45 99 45 3
0 24 11 45 24 l38 24 44 -26 c24 -14 48 -31 52 -39 4 -7 19 -13 32 -13 18 0
25 5 25 20 0 11 -5 20 -11 20 -33 0 -213 174 -386 374 -116 133 -128 159 -92
187 13 10 27 19 31 19 4 0 30 14 56 30 27 17 55 30 62 30 20 0 180 80 180 91
0 5 10 9 23 9 12 0 45 12 72 25 28 14 55 25 60 25 6 0 24 7 40 16 45 23 208
74 284 88 45 8 66 17 66 27 0 25 -100 14 -195 -21 -47 -18 -99 -35 -116 -40
-17 -4 -60 -21 -95 -38 -35 -16 -91 -40 -124 -53 -33 -12 -66 -27 -73 -32 -7
-5 -36 -7 -67 -3 -55 6 -79 -5 -48 -23 10 -5 15 -13 11 -16 -4 -4 -19 2 -35
13 -15 11 -44 26 -64 35 -70 29 -124 136 -135 271 -9 102 -21 126 -199 400
-23 34 -71 123 -107 197 -146 295 -153 317 -117 343 13 9 26 12 30 8 7 -6 40
-88 69 -172 7 -19 18 -46 26 -60 7 -14 21 -40 31 -57 9 -18 20 -33 24 -33 20
0 11 47 -27 143 -53 134 -77 213 -69 236 3 9 34 46 69 81 54 55 82 73 178 117
124 56 134 55 105 -16 -22 -51 -51 -170 -44 -177 3 -3 20 1 38 10 18 9 39 16
49 16 18 0 40 19 40 35 0 5 -4 3 -10 -5 -5 -8 -12 -11 -16 -7 -4 3 -2 13 5 21
6 8 11 18 10 22 -3 20 2 34 12 34 5 0 7 -5 4 -11 -4 -5 -4 -21 -1 -35 5 -20
12 -24 46 -24 33 0 40 -4 40 -19 0 -10 11 -26 25 -35 17 -11 24 -24 22 -39 -2
-12 -2 -16 0 -9 3 6 9 12 15 12 5 0 7 -7 4 -16 -3 -9 -6 -45 -6 -80 0 -40 -4
-64 -11 -64 -7 0 -9 17 -5 53 6 51 6 51 -9 25 -9 -16 -17 -28 -20 -28 -2 0 -1
25 2 55 4 35 2 55 -5 55 -6 0 -8 -15 -5 -40 4 -28 2 -40 -7 -40 -7 0 -10 6 -7
13 2 6 1 32 -3 57 l-7 45 -2 -42 c-2 -60 -9 -76 -27 -58 -8 7 -14 18 -14 24 0
6 -17 -5 -37 -24 -20 -19 -45 -35 -55 -35 -20 0 -21 -1 -12 -24 8 -20 44 -21
44 -2 0 17 28 41 37 32 4 -4 1 -11 -7 -16 -10 -7 -11 -10 -2 -10 6 0 12 -9 12
-20 0 -11 -4 -20 -10 -20 -5 0 -10 -7 -10 -16 0 -8 4 -13 9 -10 5 3 11 -10 13
-29 3 -25 0 -35 -10 -35 -7 0 -10 5 -6 12 4 6 -5 3 -19 -8 -34 -25 -34 -36 1
-29 25 6 25 5 10 -8 -10 -8 -18 -19 -18 -26 0 -18 -28 -13 -34 7 -2 9 -5 37
-5 61 0 24 -5 49 -10 54 -6 6 -11 16 -11 22 0 6 3 6 8 -1 5 -9 11 -8 20 2 11
12 9 14 -7 14 -13 0 -18 5 -15 14 6 16 -24 49 -40 43 -15 -5 -13 -147 4 -217
20 -86 86 -246 124 -303 37 -57 108 -130 146 -152 135 -78 242 -93 343 -46 80
36 166 155 191 264 5 22 3 27 -14 27 -13 0 -21 -9 -25 -27 -10 -48 -68 -152
-105 -188 -162 -158 -451 -18 -571 277 -40 97 -38 110 18 147 25 17 50 31 55
31 5 0 6 10 2 22 -6 20 -5 21 8 10 12 -10 18 -10 27 2 7 8 22 17 35 20 19 5
22 11 18 31 -2 14 0 25 4 25 19 0 50 -56 70 -124 24 -83 70 -173 96 -187 23
-12 65 -2 73 19 15 39 16 141 2 211 -22 114 -23 113 94 109 74 -2 99 0 99 10
0 20 21 14 27 -8 3 -11 12 -20 20 -20 11 0 14 7 9 28 -3 15 -3 21 0 14 3 -6
10 -10 15 -6 8 5 13 -9 10 -28 0 -4 7 -24 15 -44 11 -26 15 -60 12 -108 -2
-57 0 -71 12 -71 23 0 30 66 19 192 -5 65 -10 138 -11 163 -1 25 -7 50 -14 55
-6 6 -14 25 -18 43 -8 44 -71 174 -120 246 -22 33 -65 77 -97 101 -58 43 -64
55 -25 55 12 0 30 7 40 15 31 24 52 18 126 -35 39 -27 72 -50 74 -50 3 0 46
-28 97 -62 89 -60 96 -63 151 -62 55 1 58 0 58 -22 0 -30 16 -31 26 -1 4 12
23 42 43 67 20 25 41 53 46 62 13 22 63 98 103 158 17 27 32 53 32 58 0 5 16
30 35 54 31 42 40 47 97 58 137 26 217 38 252 38 21 0 39 2 42 5 3 2 93 3 202
1 108 -2 211 -4 227 -4z m-2887 -25 c-2 -15 -6 -21 -11 -16 -6 6 -7 17 -4 25
9 24 17 19 15 -9z m1292 -45 c0 -5 -2 -10 -4 -10 -3 0 -8 5 -11 10 -3 6 -1 10
4 10 6 0 11 -4 11 -10z m-1230 -15 c-7 -9 -15 -13 -19 -10 -3 3 1 10 9 15 21
14 24 12 10 -5z m-314 -124 c-2 -44 -16 -50 -16 -8 0 21 4 37 9 37 5 0 8 -13
7 -29z m-465 -42 c-5 -13 -10 -19 -10 -12 -1 15 10 45 15 40 3 -2 0 -15 -5
-28z m-20 -52 c-10 -9 -11 -8 -5 6 3 10 9 15 12 12 3 -3 0 -11 -7 -18z m1880
-51 c1 -6 1 -17 0 -23 -1 -8 9 -13 23 -13 14 0 28 -5 31 -10 4 -6 15 -8 25 -5
11 3 28 1 40 -5 16 -9 20 -21 20 -60 0 -39 -3 -50 -16 -50 -13 0 -15 9 -13 44
3 32 1 42 -8 39 -7 -3 -13 -1 -13 5 0 5 -11 7 -25 4 -15 -2 -25 0 -25 7 0 6
-9 11 -19 11 -20 0 -35 25 -25 42 3 5 0 9 -7 7 -33 -4 -40 0 -27 15 14 15 37
10 39 -8z m94 -26 c3 -5 1 -10 -4 -10 -6 0 -11 5 -11 10 0 6 2 10 4 10 3 0 8
-4 11 -10z m-201 -25 c-18 -14 -54 -21 -41 -9 11 12 52 31 56 27 3 -2 -4 -10
-15 -18z m-62 -7 c-8 -36 -49 -54 -49 -23 0 8 6 15 12 15 7 0 18 7 25 15 17
20 19 19 12 -7z m-62 -69 c0 -6 -5 -7 -12 -3 -7 5 -9 1 -6 -13 6 -24 -7 -51
-19 -40 -4 5 -1 12 7 17 10 7 11 10 3 10 -16 0 -17 22 -1 38 12 12 28 7 28 -9z
m-54 -66 c-11 -11 -19 6 -11 24 8 17 8 17 12 0 3 -10 2 -21 -1 -24z m464 4 c0
-12 -5 -29 -10 -37 -7 -11 -9 -3 -7 26 2 42 17 52 17 11z m-1532 -8 c-3 -8 -7
-3 -11 10 -4 17 -3 21 5 13 5 -5 8 -16 6 -23z m1572 -4 c0 -8 -4 -15 -10 -15
-5 0 -10 7 -10 15 0 8 5 15 10 15 6 0 10 -7 10 -15z m-516 -27 c6 -4 7 -10 3
-14 -11 -12 -36 16 -30 34 6 13 7 13 11 1 3 -7 10 -17 16 -21z m546 -40 c0 -5
-7 -8 -15 -8 -15 0 -20 21 -8 33 7 7 23 -11 23 -25z m-1535 1 c10 -30 0 -33
-13 -4 -6 14 -7 25 -2 25 5 0 12 -9 15 -21z m3675 -24 c0 -8 -4 -15 -10 -15
-5 0 -7 7 -4 15 4 8 8 15 10 15 2 0 4 -7 4 -15z m-3690 -5 c0 -5 -2 -10 -4
-10 -3 0 -8 5 -11 10 -3 6 -1 10 4 10 6 0 11 -4 11 -10z m1560 -37 c-11 -17
-11 -17 -6 0 3 10 6 24 7 30 0 9 2 9 5 0 3 -7 0 -20 -6 -30z m-2187 2 c-3 -9
-8 -14 -10 -11 -3 3 -2 9 2 15 9 16 15 13 8 -4z m1837 -5 c0 -5 -4 -10 -10
-10 -5 0 -10 5 -10 10 0 6 5 10 10 10 6 0 10 -4 10 -10z m68 -38 c2 -7 -2 -10
-12 -6 -9 3 -16 11 -16 16 0 13 23 5 28 -10z m269 -14 c-3 -7 -5 -2 -5 12 0
14 2 19 5 13 2 -7 2 -19 0 -25z m-2170 0 c-3 -8 -6 -5 -6 6 -1 11 2 17 5 13 3
-3 4 -12 1 -19z m2203 -3 c0 -8 -5 -15 -10 -15 -6 0 -8 -11 -4 -27 5 -22 4
-25 -6 -16 -8 7 -10 22 -5 42 7 32 25 43 25 16z m4 -103 c-17 -16 -17 -16 -9
3 4 11 9 34 10 50 3 50 8 53 12 7 3 -31 -1 -47 -13 -60z m-214 15 c0 -38 13
-46 85 -50 l70 -3 -70 -2 c-38 -1 -75 2 -81 6 -13 9 -27 85 -13 77 5 -4 9 -16
9 -28z m-43 1 c-3 -8 -6 -5 -6 6 -1 11 2 17 5 13 3 -3 4 -12 1 -19z m2670
-135 c-3 -10 -5 -2 -5 17 0 19 2 27 5 18 2 -10 2 -26 0 -35z m-380 15 c-3 -8
-6 -5 -6 6 -1 11 2 17 5 13 3 -3 4 -12 1 -19z m-7 -31 c0 -5 -4 -5 -10 -2 -5
3 -10 1 -10 -6 0 -7 -2 -10 -5 -8 -2 3 -2 15 2 28 4 17 8 19 14 9 5 -7 9 -17
9 -21z m-4160 -61 c0 -5 -7 -1 -15 10 -8 10 -14 24 -14 29 0 6 6 1 14 -9 8
-11 15 -24 15 -30z m4530 18 c0 -8 -5 -12 -10 -9 -6 4 -8 11 -5 16 9 14 15 11
15 -7z m-407 -19 c-3 -9 -8 -14 -10 -11 -3 3 -2 9 2 15 9 16 15 13 8 -4z m-36
-157 c-3 -8 -6 -5 -6 6 -1 11 2 17 5 13 3 -3 4 -12 1 -19z m-9 -33 c-3 -3 -9
2 -12 12 -6 14 -5 15 5 6 7 -7 10 -15 7 -18z m-3872 -32 c-7 -7 -26 7 -26 19
0 6 6 6 15 -2 9 -7 13 -15 11 -17z m48 -39 c5 -14 4 -15 -9 -4 -17 14 -19 20
-6 20 5 0 12 -7 15 -16z m4096 -54 c12 -8 11 -10 -7 -10 -13 0 -23 5 -23 10 0
13 11 13 30 0z m-60 -60 c0 -5 -5 -10 -11 -10 -5 0 -7 5 -4 10 3 6 8 10 11 10
2 0 4 -4 4 -10z m-286 -37 c-5 -5 -12 -12 -16 -18 -4 -6 -8 -2 -8 8 0 9 7 17
17 17 9 0 12 -3 7 -7z m296 -3 c0 -5 -4 -10 -10 -10 -5 0 -10 5 -10 10 0 6 5
10 10 10 6 0 10 -4 10 -10z m-3796 -93 c3 -13 6 -59 6 -103 1 -43 3 -162 5
-264 2 -102 4 -298 4 -437 1 -159 6 -255 12 -259 6 -3 8 -18 5 -32 -14 -62 -9
-532 11 -1317 8 -325 8 -363 -8 -392 -16 -29 -37 -30 -43 0 -24 119 -34 443
-41 1417 -8 1066 -8 1387 -1 1399 13 20 44 12 50 -12z m3457 0 c-10 -9 -11 -8
-5 6 3 10 9 15 12 12 3 -3 0 -11 -7 -18z m235 -12 c-3 -9 -11 -13 -16 -10 -8
5 -7 11 1 21 14 18 24 11 15 -11z m-3245 -18 l-24 -22 19 27 c10 14 21 24 23
22 3 -3 -6 -15 -18 -27z m3398 -62 c10 -37 3 -74 -22 -122 -8 -15 -25 -53 -37
-83 -22 -56 -40 -87 -93 -172 -23 -36 -37 -48 -56 -49 -89 -3 -146 -11 -153
-22 -4 -6 -3 -13 1 -15 5 -2 7 -11 4 -20 -6 -25 45 -42 99 -32 36 7 149 8 206
1 6 0 12 -8 12 -16 0 -8 7 -15 16 -15 8 0 34 -13 57 -28 23 -16 87 -52 142
-81 55 -29 102 -57 105 -61 8 -12 109 -80 119 -80 7 0 45 -24 141 -90 8 -5 44
-29 80 -52 36 -23 86 -58 112 -77 26 -20 72 -52 102 -71 31 -19 56 -38 56 -41
0 -3 28 -26 63 -49 100 -70 217 -160 292 -225 38 -33 83 -71 99 -85 16 -14 53
-45 81 -70 29 -25 73 -62 98 -83 30 -25 47 -46 47 -60 0 -15 17 -36 51 -62 27
-22 67 -60 86 -85 20 -25 47 -56 59 -70 57 -62 178 -220 219 -286 11 -17 32
-49 46 -70 15 -22 52 -82 83 -135 55 -94 56 -97 42 -125 -9 -16 -27 -63 -42
-104 -14 -41 -32 -88 -39 -105 -7 -16 -29 -77 -49 -135 -60 -173 -85 -212
-155 -251 -20 -11 -58 -33 -85 -50 -27 -17 -102 -46 -167 -64 -203 -59 -346
-80 -762 -116 l-139 -11 -27 26 c-15 14 -35 26 -44 26 -16 0 -176 96 -188 114
-4 5 -10 27 -13 48 -4 22 -16 59 -28 82 -12 22 -24 48 -28 56 -11 24 -71 34
-105 17 -35 -17 -135 -47 -157 -47 -8 0 -45 -10 -82 -21 -66 -21 -68 -21 -103
-3 -21 11 -41 32 -49 51 -8 17 -18 34 -24 38 -5 3 -37 62 -71 130 -33 69 -65
127 -70 130 -5 4 -9 13 -9 22 0 9 -14 45 -31 81 -31 67 -32 92 -2 92 10 1 34
14 53 30 28 25 31 30 15 30 -11 0 -38 -5 -59 -11 -30 -8 -45 -8 -62 2 -20 10
-27 10 -43 -5 -11 -10 -22 -27 -25 -39 -5 -22 -91 -181 -112 -209 -17 -22 -54
-129 -48 -139 10 -16 24 -10 24 11 0 11 4 20 9 20 5 0 16 18 25 40 9 22 18 40
21 40 3 0 4 -27 3 -60 -2 -32 1 -60 6 -60 5 -1 22 49 37 111 29 113 63 199 80
199 5 0 14 -12 20 -27 5 -16 18 -46 28 -68 10 -22 28 -65 41 -95 13 -30 31
-64 40 -75 9 -11 23 -36 30 -55 8 -19 29 -59 47 -89 19 -29 33 -55 31 -57 -2
-1 -55 14 -118 36 -63 21 -141 46 -172 55 -31 10 -59 24 -62 32 -5 11 -10 12
-19 5 -9 -8 -27 -7 -63 4 -27 8 -62 13 -79 12 -26 -3 -30 0 -30 22 0 14 -4 31
-9 38 -23 36 -37 -27 -78 -343 -40 -309 -34 -812 13 -1075 10 -57 17 -105 16
-105 -31 -20 -102 -35 -160 -35 l-72 0 -30 55 c-21 40 -34 54 -45 49 -8 -4
-26 -9 -39 -12 -18 -4 -22 -2 -16 8 11 18 16 1198 5 1205 -4 3 -13 -2 -20 -10
-21 -25 -27 -17 -34 48 -3 34 -11 98 -16 142 -6 51 -6 83 0 89 10 10 14 -3 11
-36 -1 -10 3 -26 9 -37 6 -12 13 -56 17 -98 6 -87 7 -88 24 -78 16 11 6 197
-20 335 -5 30 -15 114 -21 185 -13 171 -16 194 -34 370 -9 83 -18 179 -21 215
-2 36 -9 101 -14 145 -20 160 -28 785 -15 1145 2 52 4 104 4 115 0 11 1 38 2
60 1 22 2 65 1 95 -6 331 -11 304 57 316 19 3 58 12 85 20 58 16 259 57 356
73 107 18 142 15 169 -14 28 -30 40 -31 63 -5 41 48 44 1 10 -135 -25 -97 -18
-399 13 -552 8 -40 24 -25 24 22 0 45 15 60 27 28 15 -39 59 -83 83 -83 28 0
25 18 -15 80 -41 64 -50 100 -42 182 7 84 68 199 162 308 16 20 46 56 65 80
82 104 90 110 131 110 35 0 39 -3 48 -35z m-189 1 c0 -2 -13 -20 -30 -41 -16
-21 -30 -32 -30 -25 0 7 12 26 28 41 27 28 32 32 32 25z m-242 -251 c-3 -3 -9
2 -12 12 -6 14 -5 15 5 6 7 -7 10 -15 7 -18z m29 -17 c-3 -8 -6 -5 -6 6 -1 11
2 17 5 13 3 -3 4 -12 1 -19z m-21 -44 c-7 -19 -26 -9 -25 14 0 14 2 13 9 -3 8
-18 9 -18 10 5 1 14 4 19 7 12 3 -7 2 -20 -1 -28z m-16 -48 c0 -3 -4 -8 -10
-11 -5 -3 -10 -1 -10 4 0 6 5 11 10 11 6 0 10 -2 10 -4z m837 -88 c-2 -13 -4
-5 -4 17 -1 22 1 32 4 23 2 -10 2 -28 0 -40z m20 0 c-3 -8 -6 -5 -6 6 -1 11 2
17 5 13 3 -3 4 -12 1 -19z m-1708 -115 c1 -10 1 -85 1 -167 l0 -150 -46 -47
c-101 -102 -210 -131 -291 -77 -42 28 -42 28 -95 213 -34 119 -45 165 -41 168
2 2 27 0 56 -4 99 -16 327 23 392 67 24 17 24 17 24 -3z m1768 -85 c-3 -8 -6
-5 -6 6 -1 11 2 17 5 13 3 -3 4 -12 1 -19z m-3950 -100 c-3 -7 -5 -2 -5 12 0
14 2 19 5 13 2 -7 2 -19 0 -25z m4313 -123 c7 -8 18 -15 25 -15 6 0 54 -23
106 -51 349 -189 609 -386 764 -578 22 -28 45 -50 51 -51 22 -1 124 -175 124
-211 l0 -22 -26 24 c-14 13 -62 70 -105 126 -100 129 -268 297 -384 384 -90
67 -139 99 -423 270 -142 86 -181 117 -165 133 10 10 20 7 33 -9z m568 -35
c15 -12 61 -46 102 -77 41 -31 117 -97 169 -147 253 -244 344 -344 403 -435
29 -46 34 -61 21 -61 -13 0 -126 111 -208 205 -104 120 -285 298 -382 376
-108 87 -163 140 -157 150 8 14 24 11 52 -11z m-2708 -121 c-10 -28 -11 -81
-6 -201 9 -215 24 -654 31 -903 3 -110 10 -258 16 -329 5 -71 8 -130 6 -132
-2 -3 -12 35 -21 83 -9 49 -28 133 -41 188 -58 239 -117 478 -145 580 -17 61
-37 139 -44 173 -8 35 -21 85 -30 110 -8 26 -26 90 -40 142 -13 52 -34 128
-45 167 -12 40 -21 77 -21 82 0 5 18 3 40 -5 75 -26 170 3 263 80 48 40 58 30
37 -35z m-2410 -486 c65 -31 139 -63 146 -63 18 0 34 -34 34 -71 0 -24 7 -86
15 -139 8 -52 18 -133 23 -179 l8 -84 -44 -19 c-54 -24 -84 -18 -113 25 -13
17 -28 37 -35 42 -32 28 -93 133 -93 160 0 17 -1 82 -2 145 -2 169 0 212 9
208 4 -2 27 -13 52 -25z m-16 -815 c8 -25 111 -25 169 1 96 42 96 42 106 22 6
-9 10 -33 9 -52 0 -19 3 -47 6 -64 18 -91 -5 -290 -45 -390 -24 -59 -38 -116
-32 -131 4 -11 2 -15 -5 -11 -6 4 -22 43 -37 87 l-27 80 -51 15 c-28 8 -58 15
-67 15 -9 0 -24 6 -33 13 -14 10 -17 44 -20 252 -5 241 -2 257 27 163z m2522
-176 c-11 -10 -15 4 -8 28 l7 25 3 -23 c2 -13 1 -26 -2 -30z m20 -129 c16
-118 17 -143 5 -143 -4 0 -11 33 -15 73 -4 39 -9 97 -12 127 -11 94 8 46 22
-57z m-2787 -210 c-1 -45 -36 -125 -53 -120 -6 2 -15 25 -20 50 -9 44 -8 49
20 77 40 40 54 38 53 -7z m316 23 c26 -11 35 -21 35 -39 0 -13 11 -55 25 -92
13 -38 22 -71 20 -73 -3 -3 -15 -1 -27 5 -19 8 -31 4 -70 -24 -26 -18 -51 -33
-55 -33 -9 1 -73 86 -73 97 0 4 20 30 45 58 49 54 56 75 25 75 -13 0 -20 7
-20 20 0 25 43 27 95 6z m-214 -165 c7 -19 28 -57 47 -84 34 -47 35 -50 22
-85 -7 -21 -21 -48 -31 -62 -69 -95 -112 -325 -89 -474 10 -68 15 -89 40 -184
6 -24 7 -49 2 -57 -13 -25 -45 67 -69 200 -2 11 -6 117 -9 236 -5 155 -3 222
5 237 9 18 8 35 -9 88 -34 110 -24 181 33 242 l21 23 13 -23 c7 -13 18 -39 24
-57z m3259 45 c245 -56 480 -142 522 -191 12 -14 28 -23 35 -21 16 6 14 47 17
-369 2 -192 7 -385 11 -427 5 -56 5 -78 -3 -78 -11 0 -149 177 -173 222 -7 13
-29 46 -50 74 -20 27 -38 59 -40 70 -4 19 -49 34 -49 16 0 -6 3 -12 8 -14 4
-1 20 -28 36 -58 78 -145 243 -370 273 -370 10 0 36 -177 28 -190 -3 -4 2 -21
10 -36 21 -40 19 -49 -11 -63 -14 -6 -24 -17 -21 -24 5 -15 280 -21 308 -6 11
5 19 6 19 2 0 -15 -87 -152 -93 -147 -3 3 -11 -5 -18 -17 -7 -13 -18 -30 -26
-37 -7 -7 -13 -20 -13 -28 0 -8 -4 -14 -9 -14 -5 0 -13 -10 -17 -22 -3 -13
-13 -30 -21 -40 -8 -9 -10 -19 -5 -22 5 -3 14 6 20 19 7 14 18 25 26 25 8 0
20 16 27 34 7 19 17 32 22 29 12 -7 45 30 63 70 7 17 27 47 42 65 l29 32 13
-42 c7 -24 26 -64 42 -89 33 -54 34 -59 10 -59 -10 0 -26 -6 -36 -13 -16 -12
-16 -14 -2 -26 13 -11 36 -11 129 -1 61 7 120 17 130 22 11 5 30 7 43 4 27 -7
38 -37 38 -111 -1 -27 3 -52 7 -55 4 -3 12 -24 17 -47 8 -36 7 -43 -7 -47 -99
-28 -239 -57 -287 -60 -32 -2 -75 -9 -94 -15 -43 -14 -151 -30 -245 -37 -38
-3 -124 -9 -190 -15 -66 -5 -203 -11 -305 -13 -102 -2 -245 -7 -318 -10 -74
-4 -132 -3 -130 1 2 5 10 20 17 34 l13 27 36 -24 c63 -43 155 -24 198 41 14
21 16 40 10 110 l-7 84 42 38 c168 152 84 413 -133 413 -32 0 -37 4 -42 27
-11 55 -27 165 -31 219 -2 30 -7 59 -11 65 -4 7 -6 147 -6 313 1 283 15 511
43 721 11 84 17 103 28 88 3 -5 40 -17 81 -27z m-3420 -137 c0 -29 9 -71 21
-100 12 -27 19 -52 17 -55 -8 -7 -88 74 -88 89 0 7 -3 21 -5 32 -6 21 28 85
45 85 5 0 10 -23 10 -51z m4391 -11 c0 -48 5 -76 43 -260 14 -70 26 -137 26
-148 0 -12 3 -19 8 -17 4 3 7 -9 7 -26 1 -18 4 -57 9 -87 7 -50 6 -53 -7 -35
-8 11 -22 41 -31 67 -8 26 -20 56 -25 65 -5 10 -16 34 -24 53 -9 20 -16 27
-16 18 -1 -16 45 -196 69 -273 6 -16 23 -73 39 -125 17 -52 36 -109 43 -127 6
-18 9 -35 6 -39 -4 -3 -27 7 -51 22 -40 26 -52 44 -110 164 -96 199 -147 309
-147 315 0 4 -11 30 -23 58 -13 29 -35 77 -48 107 -13 30 -38 83 -56 118 -49
93 -46 103 35 130 37 12 96 29 131 36 34 8 66 17 69 20 3 3 16 6 29 6 20 0 23
-5 24 -42z m-4376 -288 c-1 -102 -3 -114 -21 -102 -15 11 -74 89 -74 99 0 22
61 103 78 103 16 0 18 -9 17 -100z m4677 -371 c33 -58 43 -78 57 -109 33 -71
57 -99 80 -93 10 3 22 0 25 -6 4 -6 0 -11 -8 -11 -26 0 -18 -17 13 -29 15 -7
34 -24 41 -39 7 -15 19 -39 26 -54 16 -30 19 -88 4 -88 -5 0 -10 5 -10 10 0 6
-6 10 -13 10 -17 0 -84 70 -134 140 -145 203 -196 316 -254 565 -5 22 -12 49
-15 60 -3 11 33 -54 79 -145 46 -91 95 -186 109 -211z m1158 227 c0 -57 -517
-177 -644 -149 -66 14 -53 29 36 41 46 6 90 10 98 11 8 0 35 4 60 10 25 5 88
17 140 27 52 9 101 21 108 27 7 5 15 7 19 4 3 -4 13 2 22 12 20 23 40 28 109
30 39 1 52 -3 52 -13z m-100 -240 c0 -28 -236 -107 -276 -92 -8 3 -14 14 -14
24 0 14 17 24 73 42 119 39 217 51 217 26z m-5550 -267 c0 -6 -4 -7 -10 -4 -5
3 -10 11 -10 16 0 6 5 7 10 4 6 -3 10 -11 10 -16z m27 -151 c-3 -8 -6 -5 -6 6
-1 11 2 17 5 13 3 -3 4 -12 1 -19z m389 -19 c3 -6 1 -16 -5 -22 -6 -6 -11 -26
-11 -44 0 -18 -6 -51 -12 -73 -12 -37 -15 -39 -48 -37 l-35 2 -6 -230 c-3
-126 -7 -232 -8 -235 -5 -15 -25 41 -37 108 -14 72 -53 425 -54 483 0 21 5 27
23 27 21 -1 128 19 133 25 8 8 54 5 60 -4z m434 -309 l0 -100 75 0 c73 0 75
-1 75 -25 0 -24 -2 -25 -76 -25 l-77 0 7 -37 c3 -21 6 -55 6 -75 0 -21 4 -38
10 -38 5 0 26 25 46 55 39 58 41 60 63 46 20 -13 5 -45 -55 -121 -44 -57 -45
-58 -31 -91 16 -38 41 -64 55 -55 5 3 12 26 15 51 5 53 10 60 33 51 14 -5 16
-16 11 -60 -6 -63 -23 -95 -55 -102 -32 -9 -66 18 -92 71 -23 48 -23 48 -78 7
-26 -20 -35 -22 -47 -12 -24 20 -18 33 36 68 l50 33 -7 97 c-4 53 -9 100 -11
105 -2 4 -27 7 -54 7 l-50 0 3 -47 c3 -50 8 -54 54 -39 16 5 23 2 27 -13 6
-26 -2 -36 -43 -47 l-35 -10 -3 -89 c-4 -112 -14 -127 -86 -123 -44 3 -51 6
-54 26 -3 20 1 22 38 22 35 0 42 4 51 28 10 24 8 107 -3 117 -2 3 -19 0 -38
-5 -39 -11 -36 -13 -45 22 -6 25 -5 27 38 33 51 8 54 12 53 75 l-1 45 -45 5
c-37 4 -46 9 -48 27 -3 20 2 22 45 25 l48 3 0 39 c0 39 0 40 -40 40 -34 1 -41
5 -43 24 -3 19 1 22 30 22 18 0 62 7 97 15 52 13 66 13 73 3 15 -25 8 -36 -29
-45 -37 -8 -38 -10 -38 -53 l0 -45 48 -3 47 -3 0 100 0 101 25 0 25 0 0 -100z
m1908 75 c7 -14 12 -32 12 -40 0 -12 19 -15 95 -15 88 0 95 -1 95 -20 0 -19
-8 -20 -192 -22 l-193 -3 -6 -145 c-3 -80 -9 -161 -13 -180 l-8 -35 27 45 c15
25 38 73 51 108 l24 62 -29 0 c-17 0 -31 6 -35 16 -9 23 2 34 34 34 26 0 29 4
32 37 2 26 8 39 20 41 13 2 17 -5 20 -35 3 -33 7 -38 31 -41 21 -3 27 -9 27
-27 0 -18 -6 -24 -27 -27 -19 -2 -28 -9 -28 -20 0 -10 4 -18 8 -17 12 1 67
-53 67 -66 0 -6 -5 -16 -11 -22 -9 -9 -17 -6 -31 13 -11 13 -23 24 -28 24 -5
0 -9 -42 -9 -92 0 -185 1 -180 -18 -176 -16 3 -19 19 -23 128 l-5 125 -23 -60
c-13 -33 -30 -69 -38 -80 -15 -19 -16 -19 -29 -2 -12 17 -16 13 -41 -43 -27
-60 -28 -61 -46 -42 -18 18 -18 19 7 64 38 69 55 164 55 321 l0 137 95 0 c98
0 105 3 84 42 -9 16 -8 23 2 29 23 14 35 10 47 -16z m-543 -130 c0 -119 -2
-130 -19 -133 -10 -2 -22 1 -26 8 -9 15 -333 16 -338 1 -2 -6 -15 -11 -28 -11
l-24 0 0 135 0 135 218 -2 217 -3 0 -130z m-1265 77 c41 -36 42 -38 23 -54
-18 -17 -21 -16 -56 20 -26 26 -36 44 -31 55 9 24 16 22 64 -21z m310 23 c42
-21 60 -53 60 -104 0 -50 -27 -100 -71 -132 -33 -23 -59 -67 -59 -99 0 -15 -6
-20 -25 -20 -23 0 -25 4 -25 40 0 36 7 48 60 105 66 71 77 108 40 145 -27 27
-94 27 -138 0 l-33 -20 3 36 c3 32 8 39 38 50 48 17 115 17 150 -1z m1954 1
c45 -19 66 -52 66 -105 0 -50 -27 -100 -71 -132 -33 -23 -59 -67 -59 -99 0
-15 -6 -20 -25 -20 -23 0 -25 4 -25 40 0 36 7 48 60 105 59 63 69 89 54 130
-17 43 -122 48 -166 8 -17 -15 -18 -14 -18 21 0 32 4 39 33 51 41 18 109 19
151 1z m-2664 -230 l0 -215 -52 -3 c-46 -3 -53 -6 -58 -28 -3 -14 -14 -26 -23
-28 -16 -3 -17 16 -17 242 l0 246 75 0 75 0 0 -214z m1940 14 l0 -200 -45 0
c-38 0 -45 -3 -45 -20 0 -13 -7 -20 -20 -20 -19 0 -20 7 -20 220 l0 220 65 0
65 0 0 -200z m378 88 c3 -36 5 -37 45 -40 34 -2 42 -7 42 -23 0 -16 -8 -21
-42 -23 l-42 -3 16 -52 c8 -29 30 -80 48 -114 30 -54 32 -63 19 -80 -12 -16
-15 -16 -24 -3 -14 21 -50 118 -50 135 0 8 -4 16 -8 19 -4 2 -6 -54 -4 -125 4
-115 2 -129 -13 -135 -29 -12 -35 16 -32 139 4 120 -1 133 -23 63 -7 -22 -22
-59 -32 -84 -16 -35 -22 -41 -34 -31 -20 16 -19 21 21 104 19 40 41 93 49 119
14 46 14 46 -10 46 -19 0 -24 5 -24 24 0 19 6 25 28 28 21 2 27 8 28 28 1 46
4 51 22 48 12 -2 18 -14 20 -40z m-563 -163 c0 -19 -7 -20 -132 -20 -129 0
-132 0 -138 -23 -3 -13 -3 -27 0 -32 4 -6 56 -10 116 -10 108 0 110 0 107 -22
-3 -22 -7 -22 -113 -23 l-110 0 0 -40 0 -40 138 -3 c136 -3 138 -3 135 -25 -3
-22 -6 -22 -162 -25 -188 -3 -244 9 -296 62 l-34 34 -26 -37 c-15 -20 -39 -47
-53 -60 -22 -20 -29 -22 -42 -11 -21 18 -20 21 30 74 25 27 54 73 66 105 20
50 25 57 46 53 26 -5 27 -10 13 -48 -9 -24 -7 -31 17 -56 31 -33 74 -58 98
-58 12 0 15 15 15 90 l0 90 -145 0 -145 0 0 25 0 25 308 -2 c299 -3 307 -3
307 -23z m-1105 -145 c15 -28 -4 -60 -35 -60 -14 0 -29 8 -35 20 -15 28 4 60
35 60 14 0 29 -8 35 -20z m1960 0 c16 -31 -4 -62 -38 -58 -28 3 -40 32 -28 64
8 21 54 17 66 -6z m1037 -176 c-3 -3 -2 -17 3 -30 6 -14 6 -40 1 -62 -9 -35
-9 -36 -10 -7 -1 17 -4 47 -7 68 -5 27 -3 37 6 37 7 0 11 -3 7 -6z m17 -191
c4 -34 3 -60 -4 -67 -7 -7 -10 -1 -11 20 0 16 -1 46 -3 67 -5 59 11 43 18 -20z"/>
<path d="M5405 6973 c-58 -23 -91 -48 -116 -89 -17 -29 -26 -34 -45 -30 -18 5
-28 -1 -48 -27 -37 -48 -35 -68 5 -57 18 5 35 7 40 5 4 -3 26 -6 48 -7 25 -1
47 -8 57 -20 19 -20 5 -25 -14 -6 -7 7 -12 8 -12 4 0 -4 10 -17 23 -28 12 -11
16 -17 9 -13 -7 4 -15 -2 -20 -15 -4 -11 -26 -32 -47 -45 -30 -18 -35 -24 -20
-25 17 0 17 -2 5 -10 -19 -12 -73 -13 -66 -1 7 10 -13 9 -30 -2 -7 -4 -14 0
-18 8 -3 8 -14 15 -24 15 -21 0 -42 -38 -42 -78 -1 -15 -7 -54 -15 -87 -20
-81 -19 -135 4 -252 24 -118 23 -117 72 -218 62 -128 167 -222 284 -251 59
-15 202 -9 259 11 67 23 135 71 179 126 49 62 55 79 29 79 -12 0 -29 -14 -42
-34 -41 -68 -119 -120 -215 -145 -86 -23 -221 -8 -277 31 -14 10 -30 18 -35
18 -19 0 -103 98 -138 160 -46 80 -64 140 -63 204 1 41 3 46 13 32 11 -14 13
-13 13 9 0 23 -7 29 -25 23 -21 -7 -23 194 -3 231 5 11 10 32 10 48 0 15 5 35
10 43 8 13 10 12 10 -2 0 -10 5 -18 11 -18 6 0 9 7 5 15 -3 8 -1 15 4 15 6 0
11 -6 11 -12 1 -7 2 -20 3 -28 0 -8 -3 -18 -9 -22 -5 -4 -10 -49 -10 -100 0
-51 -1 -78 -3 -60 -5 49 -32 43 -32 -8 0 -38 1 -40 33 -41 17 -1 25 -3 15 -6
-27 -7 -30 -33 -5 -42 12 -5 26 -6 32 -3 5 3 4 7 -3 10 -7 2 -12 8 -12 13 0
12 28 11 32 -1 2 -7 16 -5 37 6 25 13 30 19 20 26 -10 6 -7 7 9 3 14 -4 24 -2
28 8 8 21 82 19 88 -2 37 -128 52 -171 77 -211 34 -55 55 -67 80 -45 36 33 42
69 30 163 -13 107 -14 155 -2 147 5 -3 21 0 34 6 20 9 35 8 73 -7 36 -14 49
-15 52 -6 3 10 7 9 16 -3 10 -14 18 -15 49 -7 22 6 37 7 37 1 0 -5 -10 -9 -22
-9 -26 0 -13 -17 17 -22 11 -1 23 -7 28 -13 4 -6 11 -4 18 5 9 12 10 12 5 -4
-4 -10 -1 -25 6 -33 16 -20 29 -124 17 -139 -11 -13 5 -64 19 -64 5 0 12 19
16 43 9 55 9 48 2 152 -5 85 -20 151 -52 238 -8 20 -14 47 -14 58 0 11 -18 47
-40 80 -22 33 -40 63 -40 66 0 14 -76 119 -116 160 -85 89 -204 123 -299 86z
m47 -54 c3 -8 14 -8 40 -1 33 9 38 8 43 -8 3 -10 11 -21 18 -23 7 -2 3 -2 -8
0 -57 13 -117 19 -121 11 -3 -4 0 -8 7 -8 7 0 10 -3 6 -6 -3 -3 -16 -3 -28 1
l-22 7 24 19 c28 22 36 23 41 8z m158 -30 c0 -6 -4 -7 -10 -4 -5 3 -10 11 -10
16 0 6 5 7 10 4 6 -3 10 -11 10 -16z m-264 -68 c-10 -11 -14 -26 -10 -37 6
-15 4 -17 -6 -7 -19 18 -19 66 -1 80 24 18 38 -13 17 -36z m373 -35 c-3 -3
-11 5 -18 17 -13 21 -12 21 5 5 10 -10 16 -20 13 -22z m8 -41 c6 -14 9 -25 6
-25 -7 0 -32 33 -33 43 0 16 16 5 27 -18z m40 -87 c-3 -8 -6 -5 -6 6 -1 11 2
17 5 13 3 -3 4 -12 1 -19z m-398 -30 c0 6 6 12 11 12 7 0 7 -6 0 -19 -5 -11
-11 -41 -11 -68 -1 -29 -4 -37 -6 -20 -2 15 -9 27 -14 27 -5 0 -9 18 -9 41 0
33 -3 40 -16 35 -9 -3 -12 -2 -9 5 4 6 13 8 21 5 8 -3 14 1 15 12 1 9 5 4 9
-13 4 -16 8 -24 9 -17z m427 27 c-3 -8 2 -19 12 -24 9 -6 12 -11 6 -11 -17 0
-37 27 -29 40 9 15 18 12 11 -5z m-271 -35 c3 -5 1 -10 -4 -10 -6 0 -11 5 -11
10 0 6 2 10 4 10 3 0 8 -4 11 -10z m71 -56 c-3 -8 -11 -14 -18 -13 -10 0 -10
2 0 6 6 2 13 17 13 31 1 18 3 21 6 9 3 -10 2 -25 -1 -33z m-199 -64 c-1 -55
-4 -100 -7 -101 -3 0 -12 -2 -21 -4 -12 -2 -15 3 -11 24 l6 26 7 -25 c7 -20 8
-17 7 15 -2 41 11 165 17 165 2 0 3 -45 2 -100z m-124 83 c-7 -2 -19 -2 -25 0
-7 3 -2 5 12 5 14 0 19 -2 13 -5z m567 -38 c0 -11 -7 -12 -39 -6 -2 1 2 8 9
16 14 16 30 11 30 -10z m17 -97 c-3 -8 -6 -5 -6 6 -1 11 2 17 5 13 3 -3 4 -12
1 -19z m-3 -44 c3 -8 2 -12 -4 -9 -6 3 -10 10 -10 16 0 14 7 11 14 -7z m-34
-8 c0 -2 -7 -6 -15 -10 -8 -3 -15 -1 -15 4 0 6 7 10 15 10 8 0 15 -2 15 -4z
m57 -18 c-3 -8 -6 -5 -6 6 -1 11 2 17 5 13 3 -3 4 -12 1 -19z m-537 3 c0 -16
-19 -23 -40 -16 -30 10 -24 25 10 25 17 0 30 -4 30 -9z m40 -21 c0 -5 -4 -10
-10 -10 -5 0 -10 5 -10 10 0 6 5 10 10 10 6 0 10 -4 10 -10z"/>
<path d="M5330 6840 c0 -5 5 -10 10 -10 6 0 10 5 10 10 0 6 -4 10 -10 10 -5 0
-10 -4 -10 -10z"/>
<path d="M5150 6515 c0 -45 14 -45 17 0 2 19 -2 35 -7 35 -6 0 -10 -16 -10
-35z"/>
<path d="M5648 6383 c6 -2 18 -2 25 0 6 3 1 5 -13 5 -14 0 -19 -2 -12 -5z"/>
<path d="M3710 6305 c0 -11 5 -27 10 -35 8 -12 10 -12 10 5 0 11 -5 27 -10 35
-8 12 -10 12 -10 -5z"/>
<path d="M3742 6300 c0 -14 2 -19 5 -12 2 6 2 18 0 25 -3 6 -5 1 -5 -13z"/>
<path d="M3722 6210 c0 -14 2 -19 5 -12 2 6 2 18 0 25 -3 6 -5 1 -5 -13z"/>
<path d="M6096 5851 c-19 -21 -56 -116 -56 -143 0 -10 5 -18 10 -18 6 0 10 13
10 29 0 16 6 31 14 34 9 3 12 15 9 31 -3 14 -1 26 5 26 5 0 15 14 21 30 12 35
10 37 -13 11z"/>
<path d="M4796 5845 c-3 -8 -1 -15 4 -15 6 0 10 7 10 15 0 8 -2 15 -4 15 -2 0
-6 -7 -10 -15z"/>
<path d="M4936 5784 c-4 -9 -4 -19 -1 -22 2 -3 7 3 11 12 4 9 4 19 1 22 -2 3
-7 -3 -11 -12z"/>
<path d="M4655 5700 c-4 -28 -5 -54 -2 -56 3 -3 8 18 12 46 4 28 5 54 2 56 -3
3 -8 -18 -12 -46z"/>
<path d="M4926 5735 c-3 -8 -1 -15 4 -15 13 0 22 18 11 24 -5 3 -11 -1 -15 -9z"/>
<path d="M4768 5714 c-5 -4 -8 -16 -8 -28 0 -14 3 -17 11 -9 6 6 9 19 7 28 -1
9 -6 13 -10 9z"/>
<path d="M4910 5675 c0 -15 4 -24 10 -20 6 3 10 12 10 20 0 8 -4 17 -10 20 -6
4 -10 -5 -10 -20z"/>
<path d="M6016 5649 c-8 -44 -8 -55 3 -43 14 14 24 74 13 74 -5 0 -12 -14 -16
-31z"/>
<path d="M4750 5631 c0 -5 5 -13 10 -16 6 -3 10 -2 10 4 0 5 -4 13 -10 16 -5
3 -10 2 -10 -4z"/>
<path d="M4890 5604 c0 -8 5 -12 10 -9 6 4 8 11 5 16 -9 14 -15 11 -15 -7z"/>
<path d="M4753 5585 c-3 -9 -3 -18 -1 -21 3 -3 8 4 11 16 6 23 -1 27 -10 5z"/>
<path d="M4865 5169 c-56 -18 -61 -22 -73 -59 -6 -22 -12 -46 -12 -53 0 -19
45 -38 105 -43 44 -4 47 -3 23 7 -16 6 -28 14 -28 19 0 4 -7 11 -16 14 -15 6
-15 4 -3 -10 12 -15 11 -16 -11 -9 -31 9 -35 13 -26 22 4 4 25 7 46 7 24 -1
41 4 44 12 3 8 10 14 16 14 6 0 2 -13 -9 -29 l-21 -29 32 -6 c17 -3 53 -3 80
0 100 13 121 113 33 150 -46 19 -108 17 -180 -7z m125 -44 c7 -9 10 -18 6 -22
-3 -3 -6 -1 -6 5 0 19 -18 14 -23 -5 -3 -10 -4 -6 -4 10 2 31 9 34 27 12z
m-110 -25 c0 -5 -6 -10 -14 -10 -8 0 -21 -3 -30 -6 -9 -3 -16 -1 -16 4 0 9 9
13 53 21 4 0 7 -3 7 -9z m141 -37 c-9 -16 -10 -16 -11 -1 0 9 3 25 7 35 7 16
8 17 11 1 2 -10 -1 -25 -7 -35z m-31 -17 c0 -9 -9 -14 -21 -13 -19 1 -19 2 -3
14 22 16 24 16 24 -1z"/>
<path d="M3654 5139 c-3 -6 -1 -16 5 -22 8 -8 11 -5 11 11 0 24 -5 28 -16 11z"/>
<path d="M4622 4462 c-10 -7 -10 -41 -1 -173 6 -90 13 -209 15 -264 5 -113 13
-265 18 -340 1 -27 6 -108 9 -180 4 -71 9 -184 13 -250 7 -131 9 -216 18 -649
4 -174 10 -294 16 -302 6 -6 9 -16 8 -20 -2 -5 2 -11 7 -14 12 -6 28 217 19
269 -3 19 -7 136 -9 260 -2 124 -6 278 -10 341 -18 348 -23 463 -23 573 -1 38
-6 75 -12 82 -7 8 -9 19 -5 25 6 10 -22 580 -31 628 -5 23 -11 27 -32 14z"/>
<path d="M4530 4383 c0 -16 5 -71 11 -123 9 -90 16 -259 23 -605 12 -624 17
-829 23 -960 4 -82 7 -179 8 -215 2 -65 11 -103 24 -96 9 6 5 311 -14 1206 -8
421 -14 575 -24 650 -6 41 -11 96 -11 123 0 40 -3 47 -20 47 -15 0 -20 -7 -20
-27z"/>
<path d="M3113 2233 c-4 -16 -6 -49 -5 -75 3 -54 4 -176 2 -210 -3 -30 35
-135 41 -117 5 11 4 395 0 422 -3 19 -31 4 -38 -20z"/>
<path d="M2953 1644 c-7 -18 22 -75 68 -140 16 -21 37 -55 48 -75 22 -40 37
-54 69 -63 21 -7 20 -5 -10 46 -18 29 -51 82 -74 118 -23 36 -49 80 -58 98
-18 35 -33 41 -43 16z"/>
<path d="M5515 4570 c-3 -11 -4 -28 -1 -37 13 -45 42 -544 51 -878 3 -93 9
-271 13 -395 5 -124 8 -334 8 -466 -1 -189 2 -240 12 -237 15 6 16 -9 1 -24
-9 -9 -7 -11 7 -9 18 3 19 19 18 412 -2 457 -8 713 -24 979 -7 99 -12 212 -12
250 0 39 -4 99 -9 135 -5 36 -11 111 -13 167 -2 56 -7 107 -11 113 -10 17 -33
11 -40 -10z"/>
<path d="M5424 4569 c-3 -6 -3 -25 0 -42 8 -46 27 -330 32 -477 2 -69 6 -152
8 -185 1 -33 6 -213 10 -400 5 -187 10 -343 12 -346 1 -3 4 -105 5 -227 2
-187 4 -222 17 -227 18 -7 34 14 24 30 -4 5 -7 107 -8 225 0 318 -15 1004 -22
1014 -3 5 -6 72 -8 150 -3 136 -18 356 -30 443 -6 40 -27 63 -40 42z"/>
<path d="M6120 4471 c0 -10 13 -57 29 -103 16 -46 37 -119 47 -163 9 -44 41
-147 70 -228 30 -81 54 -156 54 -165 0 -10 4 -22 9 -28 11 -11 97 -242 151
-404 21 -63 55 -159 76 -212 21 -54 36 -100 33 -102 -2 -3 -36 -9 -74 -15 -80
-12 -100 -16 -170 -30 -27 -5 -94 -13 -147 -16 -102 -7 -144 -23 -120 -46 14
-15 49 -14 192 6 150 22 168 24 235 35 93 15 110 13 125 -15 19 -36 56 -31 52
7 -3 29 25 52 50 43 8 -3 54 0 104 6 49 6 271 15 494 19 234 4 418 12 435 18
24 8 26 11 10 13 -31 3 -206 10 -343 13 -67 2 -125 6 -128 9 -6 6 110 87 125
87 6 0 11 4 11 8 0 5 12 15 27 23 16 8 63 38 107 67 43 28 85 52 92 52 7 0 18
9 24 20 6 11 17 20 25 20 20 0 19 19 0 27 -9 3 -24 -2 -34 -11 -10 -9 -21 -16
-25 -16 -11 0 -260 -146 -320 -187 -28 -20 -63 -47 -77 -60 l-27 -25 -48 37
c-27 21 -56 45 -65 54 -9 9 -94 90 -189 181 -95 91 -193 187 -219 214 -25 28
-61 66 -80 85 -18 20 -65 72 -104 116 -40 44 -93 101 -118 127 l-46 46 -7 89
c-4 48 -7 121 -7 161 -1 54 -4 72 -14 72 -16 0 -23 -34 -29 -130 -2 -36 -5
-67 -6 -70 0 -3 -13 25 -28 62 -15 36 -31 70 -35 74 -4 4 -7 17 -7 28 0 12
-15 66 -34 121 -27 82 -37 101 -54 103 -16 3 -22 -2 -22 -17z"/>
<path d="M7745 3420 c-3 -5 -1 -10 4 -10 6 0 11 5 11 10 0 6 -2 10 -4 10 -3 0
-8 -4 -11 -10z"/>
<path d="M6103 3225 c-10 -14 -34 -47 -53 -72 -35 -47 -140 -198 -228 -328
-26 -38 -53 -74 -59 -78 -7 -4 -13 -13 -13 -18 0 -6 5 -7 10 -4 6 3 10 2 10
-4 0 -5 -8 -14 -17 -20 -10 -5 -15 -13 -10 -17 9 -9 48 26 41 37 -3 5 -1 9 3
9 5 0 33 34 63 76 30 42 72 100 92 128 21 28 41 58 44 66 4 8 21 33 39 55 50
64 125 175 125 185 0 19 -29 9 -47 -15z"/>
<path d="M5853 3113 c-66 -88 -125 -182 -118 -192 8 -14 25 -14 25 0 0 7 18
35 40 63 69 87 110 146 110 156 0 22 -30 8 -57 -27z"/>
<path d="M7927 3014 c-18 -19 -2 -37 57 -63 35 -16 67 -34 70 -40 4 -6 15 -11
24 -11 17 0 137 -73 172 -105 10 -9 24 -14 29 -10 6 3 14 -1 17 -9 6 -15 44
-23 44 -10 0 9 -28 34 -37 34 -5 0 -27 15 -49 33 -58 47 -124 92 -164 111 -19
8 -42 20 -50 26 -8 5 -33 17 -55 27 -22 9 -43 18 -46 20 -3 2 -8 0 -12 -3z"/>
<path d="M5690 2845 c-11 -13 -10 -14 4 -9 9 3 16 10 16 15 0 13 -6 11 -20 -6z"/>
<path d="M8356 2735 c4 -8 11 -15 16 -15 6 0 5 6 -2 15 -7 8 -14 15 -16 15 -2
0 -1 -7 2 -15z"/>
<path d="M5506 2641 c-4 -7 -5 -15 -2 -18 9 -9 19 4 14 18 -4 11 -6 11 -12 0z"/>
<path d="M5510 2585 c-7 -9 -11 -17 -9 -20 3 -2 10 5 17 15 14 24 10 26 -8 5z"/>
<path d="M5596 2478 c3 -5 10 -6 15 -3 13 9 11 12 -6 12 -8 0 -12 -4 -9 -9z"/>
<path d="M6111 1804 c0 -11 3 -14 6 -6 3 7 2 16 -1 19 -3 4 -6 -2 -5 -13z"/>
<path d="M6045 1788 c-4 -9 -1 -26 5 -37 6 -12 9 -25 6 -30 -3 -5 3 -16 14
-26 11 -10 20 -24 20 -32 0 -15 145 -299 185 -363 14 -22 25 -42 25 -44 0 -10
61 -93 103 -140 26 -29 49 -46 56 -42 19 12 13 29 -24 71 -36 40 -110 142
-131 180 -6 11 -19 34 -30 52 -48 80 -73 125 -79 144 -4 12 -18 37 -31 56 -13
19 -35 59 -50 89 -14 30 -30 54 -35 54 -5 0 -7 10 -4 23 3 12 -1 31 -9 42 -13
18 -15 18 -21 3z"/>
<path d="M6147 1764 c-4 -4 -7 -14 -7 -23 0 -11 3 -12 11 -4 6 6 10 16 7 23
-2 6 -7 8 -11 4z"/>
<path d="M2935 1120 c3 -5 8 -10 11 -10 2 0 4 5 4 10 0 6 -5 10 -11 10 -5 0
-7 -4 -4 -10z"/>
<path d="M4500 855 l0 -25 170 0 170 0 0 25 0 25 -170 0 -170 0 0 -25z"/>
<path d="M4500 755 l0 -25 168 2 c165 3 167 3 170 26 l3 22 -170 0 -171 0 0
-25z"/>
<path d="M3114 827 c-2 -7 -3 -85 -2 -172 l3 -160 28 -3 c15 -2 27 -2 28 0 4
18 8 309 4 326 -6 25 -52 32 -61 9z"/>
<path d="M5070 680 l0 -150 25 0 25 0 0 150 0 150 -25 0 -25 0 0 -150z"/>
<path d="M7708 6363 c-3 -16 -4 -46 -2 -68 4 -62 41 -274 57 -335 8 -30 25
-93 37 -140 12 -47 26 -89 30 -95 5 -5 13 -30 20 -55 11 -42 36 -100 114 -260
34 -71 96 -167 158 -245 50 -63 178 -195 189 -195 5 0 9 -7 9 -15 0 -8 7 -15
15 -15 8 0 15 7 15 16 0 8 -4 12 -10 9 -5 -3 -10 0 -10 7 0 8 -8 21 -17 29
-37 33 -169 188 -188 220 -5 10 -28 44 -50 76 -23 32 -49 74 -58 93 -10 19
-27 51 -38 70 -12 19 -23 44 -25 56 -2 12 -15 42 -29 67 -14 25 -35 76 -46
114 -51 171 -81 283 -95 348 -38 182 -45 226 -44 247 5 59 -1 98 -14 98 -7 0
-16 -12 -18 -27z"/>
<path d="M8648 6041 c-5 -68 -7 -300 -6 -515 l1 -391 9 440 c9 502 8 668 -4
466z"/>
<path d="M7931 6043 c1 -37 6 -83 11 -103 5 -19 13 -51 18 -70 26 -105 48
-165 75 -205 11 -17 24 -37 30 -46 19 -31 97 -124 107 -128 17 -6 -2 41 -36
87 -56 78 -91 146 -115 222 -12 41 -27 85 -32 98 -5 13 -14 65 -21 117 -8 68
-15 95 -25 95 -10 0 -13 -16 -12 -67z"/>
<path d="M1534 5311 c-28 -9 -58 -22 -66 -28 -8 -7 -33 -19 -56 -27 -23 -8
-101 -44 -174 -80 -73 -35 -145 -69 -160 -75 -16 -6 -28 -17 -28 -26 0 -8 2
-15 4 -15 5 0 124 53 201 90 33 16 85 38 115 50 30 12 78 32 105 45 28 13 69
29 93 36 48 14 61 27 41 40 -17 10 -12 11 -75 -10z"/>
<path d="M1006 5055 c4 -8 8 -15 10 -15 2 0 4 7 4 15 0 8 -4 15 -10 15 -5 0
-7 -7 -4 -15z"/>
<path d="M975 5040 c3 -5 11 -10 16 -10 6 0 7 5 4 10 -3 6 -11 10 -16 10 -6 0
-7 -4 -4 -10z"/>
<path d="M840 4965 c-11 -13 -10 -14 4 -9 9 3 16 10 16 15 0 13 -6 11 -20 -6z"/>
<path d="M1579 4829 c-57 -50 -110 -102 -117 -115 -7 -13 -19 -24 -26 -24 -15
0 -417 -397 -591 -584 -66 -71 -139 -149 -162 -174 -40 -42 -63 -82 -47 -82 3
0 66 61 138 136 72 75 199 205 281 289 83 83 168 172 190 196 23 24 56 57 75
73 19 15 73 65 120 110 47 45 126 117 175 161 50 44 90 84 90 89 0 27 -33 8
-126 -75z"/>
<path d="M1995 4691 c-36 -55 -65 -103 -65 -108 0 -4 -16 -31 -36 -58 -20 -28
-49 -77 -66 -110 -17 -33 -36 -67 -43 -75 -20 -24 -165 -291 -165 -304 0 -31
80 84 123 176 10 20 22 40 27 43 6 4 20 25 33 47 32 59 48 86 87 151 19 31 46
77 60 101 14 24 51 82 83 129 31 47 57 87 57 90 0 3 -7 7 -15 11 -11 4 -34
-23 -80 -93z"/>
<path d="M2051 4584 c0 -11 3 -14 6 -6 3 7 2 16 -1 19 -3 4 -6 -2 -5 -13z"/>
<path d="M1585 4010 c-3 -5 -1 -10 4 -10 6 0 11 5 11 10 0 6 -2 10 -4 10 -3 0
-8 -4 -11 -10z"/>
<path d="M1581 3966 c-8 -9 -8 -16 -2 -20 6 -4 15 3 21 14 12 23 -2 27 -19 6z"/>
<path d="M1521 3854 c0 -11 3 -14 6 -6 3 7 2 16 -1 19 -3 4 -6 -2 -5 -13z"/>
<path d="M592 3830 c-19 -30 -16 -43 8 -30 11 6 20 20 20 30 0 26 -12 25 -28
0z"/>
<path d="M2155 2700 c-9 -15 -10 -790 0 -1270 7 -409 17 -667 35 -900 5 -74 7
-145 4 -158 -4 -12 -1 -28 5 -35 6 -8 8 -16 6 -19 -3 -3 -1 -18 5 -34 7 -16
13 -51 15 -79 2 -27 8 -61 14 -75 8 -22 10 -19 10 26 1 27 -4 55 -10 61 -8 8
-8 17 -1 30 6 11 7 25 2 33 -6 9 -5 17 3 22 9 6 8 10 -2 17 -10 7 -15 32 -17
88 -1 43 -4 166 -8 273 -28 831 -25 698 -29 1429 -3 575 -6 633 -32 591z"/>
<path d="M2007 1933 c-11 -19 11 -741 28 -893 2 -25 12 -126 21 -225 9 -99 17
-181 18 -182 1 -1 7 1 13 5 8 5 9 44 2 147 -5 77 -12 185 -14 240 -3 55 -8
132 -11 170 -7 97 -13 284 -17 521 -2 110 -7 205 -11 212 -8 14 -23 16 -29 5z"/>
<path d="M9265 1631 c-6 -11 9 -23 19 -14 9 9 7 23 -3 23 -6 0 -12 -4 -16 -9z"/>
<path d="M2090 559 c0 -11 5 -17 10 -14 6 3 10 13 10 21 0 8 -4 14 -10 14 -5
0 -10 -9 -10 -21z"/>
</g>
</svg>
